<svg width="47" height="47" viewBox="0 0 47 47" fill="none" xmlns="http://www.w3.org/2000/svg">
<rect width="47" height="47" rx="8" fill="#1D0C32"/>
<g clip-path="url(#clip0_935_290)">
<path d="M6.5 9.50301L22.0857 25.0888C22.8668 25.8698 24.1332 25.8698 24.9143 25.0888L40.5001 9.503L40.5 35.5888C40.5 38.2894 38.3266 40.0889 35.5 40.0889H11.5C8.67345 40.0889 6.5 38.2893 6.5 35.5888L6.5 9.50301ZM6.5 9.50301L6.49999 9.50301L6.5 9.50301ZM39.0858 8.08878L39.0857 8.08879L23.5 23.6745L23.5 23.6745L7.91421 8.0888C6.65428 6.82886 4.5 7.7212 4.5 9.50301V35.5888C4.5 39.4547 7.63401 42.5888 11.5 42.5888H35.5C39.366 42.5888 42.5 39.4547 42.5 35.5888V9.50301C42.5 7.72119 40.3457 6.82888 39.0858 8.08878Z" fill="#A47DE4" stroke="black"/>
</g>
<defs>
<clipPath id="clip0_935_290">
<rect width="37" height="35" fill="white" transform="translate(5 8)"/>
</clipPath>
</defs>
</svg>
